<?xml version="1.0" encoding="UTF-8"?>
<svg xmlns="http://www.w3.org/2000/svg" width="126" height="32" viewBox="0 0 126 32" fill="none">
  <g clip-path="url(#clip0_1680_10831)">
    <path d="M51.7168 15.1364V1.77783H56.6825C57.5883 1.77783 58.3891 1.94145 59.0848 2.26869C59.7806 2.59593 60.3259 3.07409 60.7207 3.70317C61.1155 4.33224 61.3129 5.09804 61.3129 6.00057C61.3129 6.91803 61.0946 7.70027 60.6581 8.34728C60.2216 8.99429 59.6338 9.47319 58.8949 9.784L61.952 15.1364H59.1988L55.9182 9.27296L57.5004 10.2054H54.1527V15.1364H51.7168ZM54.1527 8.05366H56.7137C57.1518 8.05366 57.5317 7.96774 57.8535 7.7959C58.1753 7.62406 58.4263 7.38349 58.6066 7.07418C58.7869 6.76487 58.877 6.40551 58.877 5.99609C58.877 5.5777 58.7869 5.2146 58.6066 4.90678C58.4263 4.59897 58.1753 4.35914 57.8535 4.1873C57.5317 4.01546 57.1518 3.92954 56.7137 3.92954H54.1527V8.05366Z" fill="#252333"></path>
    <path d="M67.1109 15.3516C66.1098 15.3516 65.233 15.1245 64.4806 14.6702C63.7282 14.216 63.1435 13.6018 62.7263 12.8278C62.3092 12.0538 62.1006 11.1916 62.1006 10.2413C62.1006 9.26403 62.3144 8.39513 62.742 7.63456C63.1696 6.87399 63.7476 6.27405 64.4761 5.83474C65.2047 5.39544 66.0263 5.17578 66.9411 5.17578C67.695 5.17578 68.3632 5.2998 68.9457 5.54785C69.5282 5.79589 70.0214 6.14032 70.4251 6.58112C70.8289 7.02192 71.1365 7.52772 71.3481 8.09852C71.5596 8.66933 71.6654 9.28197 71.6654 9.93645C71.6654 10.1098 71.6572 10.2846 71.6408 10.4609C71.6244 10.6372 71.5954 10.7941 71.5537 10.9316H64.0448V9.13852H70.2217L69.1088 9.97231C69.225 9.42242 69.2019 8.93231 69.0395 8.50197C68.8772 8.07163 68.6135 7.73094 68.2484 7.47991C67.8834 7.22887 67.4476 7.10336 66.9411 7.10336C66.4435 7.10336 66.0062 7.22738 65.6293 7.47542C65.2524 7.72347 64.9656 8.08283 64.7689 8.55352C64.5722 9.02421 64.4948 9.59277 64.5365 10.2592C64.4858 10.8629 64.5655 11.3926 64.7756 11.8483C64.9857 12.3041 65.2956 12.6582 65.7053 12.9107C66.115 13.1633 66.5925 13.2895 67.1378 13.2895C67.6711 13.2895 68.1248 13.176 68.4987 12.9488C68.8727 12.7217 69.1684 12.4199 69.3859 12.0433L71.281 12.9623C71.0903 13.4285 70.7916 13.8417 70.3849 14.2018C69.9782 14.5619 69.4969 14.8435 68.9412 15.0468C68.3855 15.25 67.7754 15.3516 67.1109 15.3516Z" fill="#252333"></path>
    <path d="M73.1377 15.1364V5.39095H75.3501V7.6368L75.0954 7.2737C75.2682 6.56842 75.625 6.04244 76.1658 5.69578C76.7066 5.34911 77.3406 5.17578 78.0676 5.17578C78.8602 5.17578 79.5612 5.38273 80.1705 5.79664C80.7799 6.21055 81.1739 6.76117 81.3527 7.44853L80.6823 7.5068C80.9832 6.72083 81.4309 6.13583 82.0254 5.75181C82.6198 5.36779 83.3059 5.17578 84.0836 5.17578C84.7719 5.17578 85.3872 5.33118 85.9295 5.64199C86.4718 5.95279 86.9002 6.38463 87.2145 6.9375C87.5289 7.49037 87.6861 8.1299 87.6861 8.85611V15.1364H85.3395V9.41645C85.3395 8.98312 85.2621 8.61254 85.1071 8.30473C84.9522 7.99692 84.7362 7.75709 84.459 7.58525C84.1819 7.41341 83.8512 7.32749 83.4668 7.32749C83.0943 7.32749 82.7658 7.41341 82.4813 7.58525C82.1967 7.75709 81.9762 7.99766 81.8198 8.30697C81.6633 8.61628 81.5851 8.98611 81.5851 9.41645V15.1364H79.2386V9.41645C79.2386 8.98312 79.1611 8.61254 79.0062 8.30473C78.8513 7.99692 78.6352 7.75709 78.3581 7.58525C78.081 7.41341 77.7503 7.32749 77.3659 7.32749C76.9904 7.32749 76.6612 7.41341 76.3781 7.58525C76.095 7.75709 75.8753 7.99766 75.7189 8.30697C75.5624 8.61628 75.4842 8.98611 75.4842 9.41645V15.1364H73.1377Z" fill="#252333"></path>
    <path d="M89.3545 15.1364V5.39095H91.5669V7.30956L91.3837 6.96888C91.6131 6.37417 91.9856 5.92664 92.501 5.6263C93.0165 5.32595 93.6184 5.17578 94.3067 5.17578C95.0308 5.17578 95.6685 5.33118 96.2197 5.64199C96.771 5.95279 97.2023 6.38463 97.5136 6.9375C97.825 7.49037 97.9807 8.1313 97.9807 8.86031V15.1364H95.6342V9.41645C95.6342 8.98312 95.5523 8.61254 95.3884 8.30473C95.2245 7.99692 94.9946 7.75709 94.6988 7.58525C94.403 7.41341 94.0626 7.32749 93.6777 7.32749C93.2925 7.32749 92.9495 7.41341 92.6485 7.58525C92.3476 7.75709 92.1144 7.99766 91.9491 8.30697C91.7837 8.61628 91.701 8.98611 91.701 9.41645V15.1364H89.3545Z" fill="#252333"></path>
    <path d="M102.608 15.3516C101.929 15.3516 101.337 15.2373 100.834 15.0087C100.33 14.78 99.9412 14.4558 99.6671 14.0359C99.3929 13.616 99.2559 13.1207 99.2559 12.5499C99.2559 12.012 99.3765 11.5323 99.6179 11.1109C99.8592 10.6895 100.231 10.3354 100.733 10.0485C101.235 9.76162 101.865 9.5584 102.621 9.43886L105.799 8.91886V10.703L103.064 11.1826C102.605 11.2663 102.262 11.4135 102.034 11.6242C101.806 11.8349 101.692 12.1165 101.692 12.4692C101.692 12.8009 101.819 13.0669 102.074 13.2671C102.329 13.4673 102.648 13.5675 103.033 13.5675C103.527 13.5675 103.961 13.4606 104.333 13.2469C104.706 13.0333 104.995 12.7434 105.203 12.3773C105.41 12.0112 105.513 11.607 105.513 11.1647V8.64542C105.513 8.22404 105.352 7.87439 105.028 7.59646C104.705 7.31853 104.272 7.17956 103.73 7.17956C103.226 7.17956 102.783 7.31479 102.4 7.58525C102.017 7.85571 101.736 8.21059 101.558 8.6499L99.6447 7.71749C99.8324 7.20347 100.131 6.75669 100.541 6.37715C100.951 5.99762 101.437 5.7025 102 5.49181C102.563 5.28113 103.171 5.17578 103.824 5.17578C104.616 5.17578 105.317 5.32222 105.927 5.61509C106.536 5.90796 107.011 6.3144 107.35 6.83439C107.69 7.35439 107.86 7.95807 107.86 8.64542V15.1364H105.647V13.4733L106.152 13.4419C105.896 13.8544 105.594 14.2025 105.247 14.4864C104.9 14.7703 104.507 14.9855 104.067 15.1319C103.628 15.2784 103.141 15.3516 102.608 15.3516Z" fill="#252333"></path>
    <path d="M109.726 15.1364V5.39095H111.938V7.30956L111.755 6.96888C111.984 6.37417 112.357 5.92664 112.872 5.6263C113.388 5.32595 113.99 5.17578 114.678 5.17578C115.402 5.17578 116.04 5.33118 116.591 5.64199C117.142 5.95279 117.573 6.38463 117.885 6.9375C118.196 7.49037 118.352 8.1313 118.352 8.86031V15.1364H116.005V9.41645C116.005 8.98312 115.923 8.61254 115.759 8.30473C115.596 7.99692 115.366 7.75709 115.07 7.58525C114.774 7.41341 114.434 7.32749 114.049 7.32749C113.664 7.32749 113.321 7.41341 113.02 7.58525C112.719 7.75709 112.486 7.99766 112.32 8.30697C112.155 8.61628 112.072 8.98611 112.072 9.41645V15.1364H109.726Z" fill="#252333"></path>
    <path d="M124.463 15.244C123.363 15.244 122.512 14.9414 121.908 14.3362C121.305 13.731 121.003 12.8816 121.003 11.7878V7.47539H119.327V5.39092H119.506C119.983 5.39092 120.351 5.26316 120.612 5.00764C120.873 4.75213 121.003 4.38529 121.003 3.90713V3.16748H123.35V5.39092H125.593V7.47539H123.35V11.6533C123.35 11.985 123.406 12.2644 123.52 12.4916C123.633 12.7187 123.812 12.8905 124.058 13.0071C124.304 13.1236 124.615 13.1819 124.99 13.1819C125.076 13.1819 125.176 13.1759 125.29 13.164C125.403 13.152 125.516 13.1401 125.629 13.1281V15.1364C125.459 15.1633 125.267 15.1879 125.053 15.2103C124.838 15.2328 124.641 15.244 124.463 15.244Z" fill="#252333"></path>
    <path d="M54.467 30.2224C53.9068 30.2224 53.3894 30.1178 52.9146 29.9086C52.4398 29.6994 52.0346 29.4105 51.6989 29.0419C51.3632 28.6733 51.1178 28.252 50.9629 27.7778L52.1488 27.2757C52.3633 27.8216 52.6782 28.243 53.0934 28.5399C53.5085 28.8367 53.9863 28.9851 54.5266 28.9851C54.8444 28.9851 55.1216 28.9343 55.3579 28.8327C55.5943 28.7311 55.7781 28.5897 55.9092 28.4084C56.0403 28.2271 56.1058 28.0149 56.1058 27.7718C56.1058 27.4491 56.0145 27.1911 55.8317 26.9978C55.649 26.8045 55.3788 26.6541 55.0212 26.5465L53.3526 26.0206C52.6852 25.8134 52.1776 25.4956 51.83 25.0672C51.4824 24.6389 51.3085 24.1378 51.3085 23.564C51.3085 23.0659 51.4307 22.6266 51.675 22.2461C51.9194 21.8656 52.2581 21.5677 52.6911 21.3525C53.1242 21.1374 53.6188 21.0298 54.175 21.0298C54.7074 21.0298 55.1931 21.1244 55.6321 21.3137C56.0711 21.503 56.4465 21.761 56.7584 22.0877C57.0703 22.4145 57.2997 22.793 57.4467 23.2233L56.2787 23.7314C56.0999 23.2612 55.8267 22.8996 55.4592 22.6466C55.0918 22.3935 54.6657 22.267 54.181 22.267C53.887 22.267 53.6277 22.3168 53.4033 22.4164C53.1788 22.5161 53.005 22.6585 52.8818 22.8438C52.7587 23.0291 52.6971 23.2453 52.6971 23.4923C52.6971 23.7792 52.7884 24.0342 52.9712 24.2574C53.154 24.4805 53.4321 24.6498 53.8055 24.7654L55.3609 25.2495C56.0681 25.4687 56.5995 25.7795 56.9551 26.1819C57.3106 26.5844 57.4884 27.0825 57.4884 27.6762C57.4884 28.1743 57.3603 28.6146 57.104 28.9971C56.8478 29.3796 56.4932 29.6795 56.0403 29.8966C55.5874 30.1138 55.0629 30.2224 54.467 30.2224Z" fill="#252333"></path>
    <path d="M61.8427 30.2222C61.219 30.2222 60.6519 30.0758 60.1413 29.7829C59.6308 29.4901 59.2246 29.0886 58.9226 28.5786C58.6207 28.0685 58.4697 27.4888 58.4697 26.8393C58.4697 26.1898 58.6197 25.612 58.9197 25.106C59.2196 24.5999 59.6239 24.2004 60.1324 23.9076C60.6409 23.6147 61.211 23.4683 61.8427 23.4683C62.4744 23.4683 63.0436 23.6137 63.5501 23.9046C64.0567 24.1955 64.4589 24.5939 64.7569 25.1C65.0549 25.606 65.2038 26.1858 65.2038 26.8393C65.2038 27.4928 65.0519 28.0745 64.7479 28.5846C64.444 29.0946 64.0388 29.495 63.5322 29.7859C63.0257 30.0768 62.4625 30.2222 61.8427 30.2222ZM61.8427 28.9671C62.2202 28.9671 62.5559 28.8754 62.8499 28.6921C63.1439 28.5088 63.3763 28.2558 63.5471 27.9331C63.718 27.6103 63.8034 27.2457 63.8034 26.8393C63.8034 26.4328 63.718 26.0712 63.5471 25.7545C63.3763 25.4377 63.1439 25.1866 62.8499 25.0014C62.5559 24.8161 62.2202 24.7234 61.8427 24.7234C61.4653 24.7234 61.1286 24.8161 60.8326 25.0014C60.5366 25.1866 60.3022 25.4377 60.1294 25.7545C59.9566 26.0712 59.8702 26.4328 59.8702 26.8393C59.8702 27.2457 59.9566 27.6103 60.1294 27.9331C60.3022 28.2558 60.5366 28.5088 60.8326 28.6921C61.1286 28.8754 61.4653 28.9671 61.8427 28.9671Z" fill="#252333"></path>
    <path d="M66.3164 30.0789V21.0298H67.6573V30.0789H66.3164Z" fill="#252333"></path>
    <path d="M71.3318 30.2224C70.8471 30.2224 70.421 30.1128 70.0535 29.8936C69.686 29.6745 69.402 29.3686 69.2013 28.9762C69.0007 28.5837 68.9004 28.1284 68.9004 27.6104V23.6118H70.2413V27.4849C70.2413 27.7798 70.3008 28.0388 70.42 28.2619C70.5392 28.485 70.7071 28.6584 70.9236 28.7819C71.1401 28.9054 71.3874 28.9672 71.6655 28.9672C71.9476 28.9672 72.1969 28.9044 72.4135 28.7789C72.63 28.6534 72.7988 28.4751 72.92 28.244C73.0412 28.0129 73.1018 27.7399 73.1018 27.4251V23.6118H74.4426V30.0789H73.1614V28.8118L73.3103 28.9791C73.1594 29.3816 72.9081 29.6894 72.5565 29.9026C72.2049 30.1158 71.7967 30.2224 71.3318 30.2224Z" fill="#252333"></path>
    <path d="M78.6067 30.1505C77.9273 30.1505 77.4019 29.9602 77.0304 29.5797C76.6589 29.1992 76.4732 28.6622 76.4732 27.9689V24.837H75.335V23.6117H75.5137C75.8157 23.6117 76.0511 23.525 76.2199 23.3517C76.3888 23.1784 76.4732 22.9403 76.4732 22.6374V22.1294H77.8141V23.6117H79.2801V24.837H77.8141V27.9091C77.8141 28.1283 77.8498 28.3156 77.9213 28.471C77.9928 28.6264 78.1091 28.7459 78.27 28.8296C78.4309 28.9133 78.6384 28.9551 78.8927 28.9551C78.9523 28.9551 79.0218 28.9511 79.1013 28.9432C79.1808 28.9352 79.2562 28.9272 79.3278 28.9192V30.0788C79.2205 30.0987 79.0993 30.1156 78.9642 30.1296C78.8291 30.1435 78.71 30.1505 78.6067 30.1505Z" fill="#252333"></path>
    <path d="M80.4404 30.079V23.6119H81.7813V30.079H80.4404ZM80.4404 22.7274V21.1733H81.7813V22.7274H80.4404Z" fill="#252333"></path>
    <path d="M86.2666 30.2222C85.6428 30.2222 85.0757 30.0758 84.5652 29.7829C84.0546 29.4901 83.6484 29.0886 83.3465 28.5786C83.0445 28.0685 82.8936 27.4888 82.8936 26.8393C82.8936 26.1898 83.0435 25.612 83.3435 25.106C83.6434 24.5999 84.0477 24.2004 84.5562 23.9076C85.0648 23.6147 85.6349 23.4683 86.2666 23.4683C86.8983 23.4683 87.4674 23.6137 87.9739 23.9046C88.4805 24.1955 88.8827 24.5939 89.1807 25.1C89.4787 25.606 89.6277 26.1858 89.6277 26.8393C89.6277 27.4928 89.4757 28.0745 89.1718 28.5846C88.8678 29.0946 88.4626 29.495 87.9561 29.7859C87.4495 30.0768 86.8863 30.2222 86.2666 30.2222ZM86.2666 28.9671C86.644 28.9671 86.9797 28.8754 87.2737 28.6921C87.5677 28.5088 87.8001 28.2558 87.971 27.9331C88.1418 27.6103 88.2272 27.2457 88.2272 26.8393C88.2272 26.4328 88.1418 26.0712 87.971 25.7545C87.8001 25.4377 87.5677 25.1866 87.2737 25.0014C86.9797 24.8161 86.644 24.7234 86.2666 24.7234C85.8891 24.7234 85.5524 24.8161 85.2565 25.0014C84.9605 25.1866 84.7261 25.4377 84.5532 25.7545C84.3804 26.0712 84.294 26.4328 84.294 26.8393C84.294 27.2457 84.3804 27.6103 84.5532 27.9331C84.7261 28.2558 84.9605 28.5088 85.2565 28.6921C85.5524 28.8754 85.8891 28.9671 86.2666 28.9671Z" fill="#252333"></path>
    <path d="M90.7402 30.0788V23.6117H92.0215V24.8788L91.8725 24.7115C92.0275 24.309 92.2797 24.0012 92.6294 23.788C92.979 23.5749 93.3862 23.4683 93.851 23.4683C94.3238 23.4683 94.743 23.5719 95.1085 23.7791C95.474 23.9863 95.761 24.2732 95.9696 24.6398C96.1782 25.0063 96.2825 25.4273 96.2825 25.9028V30.0788H94.9416V26.2655C94.9416 25.9427 94.882 25.6678 94.7628 25.4407C94.6436 25.2135 94.4766 25.0372 94.2617 24.9117C94.0468 24.7862 93.7994 24.7234 93.5197 24.7234C93.24 24.7234 92.9909 24.7862 92.7724 24.9117C92.5539 25.0372 92.384 25.2145 92.2629 25.4437C92.1417 25.6728 92.0811 25.9467 92.0811 26.2655V30.0788H90.7402Z" fill="#252333"></path>
    <path d="M99.9089 30.2222C99.2454 30.2222 98.6664 30.0599 98.1717 29.7351C97.6771 29.4104 97.3305 28.9711 97.1318 28.4172L98.1628 27.9271C98.3376 28.2977 98.579 28.5905 98.8869 28.8057C99.1948 29.0209 99.5355 29.1285 99.9089 29.1285C100.227 29.1285 100.485 29.0557 100.684 28.9103C100.882 28.7649 100.982 28.5706 100.982 28.3275C100.982 28.1682 100.938 28.0387 100.85 27.939C100.763 27.8394 100.654 27.7577 100.523 27.694C100.392 27.6302 100.259 27.5804 100.123 27.5446L99.1104 27.2577C98.5502 27.0983 98.133 26.8582 97.8589 26.5374C97.5847 26.2167 97.4477 25.8411 97.4477 25.4108C97.4477 25.0203 97.547 24.6796 97.7457 24.3887C97.9443 24.0978 98.2184 23.8717 98.568 23.7103C98.9177 23.549 99.313 23.4683 99.754 23.4683C100.342 23.4683 100.866 23.6137 101.327 23.9046C101.788 24.1955 102.114 24.6019 102.305 25.1239L101.262 25.614C101.135 25.2992 100.934 25.0502 100.66 24.8669C100.386 24.6836 100.078 24.5919 99.7361 24.5919C99.4421 24.5919 99.2087 24.6617 99.0359 24.8011C98.863 24.9406 98.7766 25.1219 98.7766 25.345C98.7766 25.4965 98.8164 25.622 98.8958 25.7216C98.9753 25.8212 99.0786 25.9009 99.2057 25.9607C99.3328 26.0204 99.4639 26.0702 99.599 26.1101L100.648 26.4209C101.176 26.5763 101.584 26.8144 101.873 27.1351C102.161 27.4559 102.305 27.8414 102.305 28.2917C102.305 28.6702 102.203 29.0049 102.001 29.2958C101.798 29.5867 101.518 29.8138 101.16 29.9772C100.803 30.1406 100.386 30.2222 99.9089 30.2222Z" fill="#252333"></path>
    <path fill-rule="evenodd" clip-rule="evenodd" d="M4.46353 2.58431L12.0131 10.1338C15.253 13.3737 15.253 18.6266 12.0129 21.8667L10.2792 23.6004C4.47701 22.8312 0 17.8644 0 11.852C0 8.10041 1.74308 4.75595 4.46353 2.58431ZM33.8797 0L25.4221 8.45748L25.271 8.60489C22.0209 11.6968 16.8792 11.6477 13.6892 8.45765L6.5032 1.27281C8.05311 0.487648 9.79887 0.0330745 11.6477 0.00184926L11.8519 0.000126555L33.8797 0Z" fill="#312EC0"></path>
    <path fill-rule="evenodd" clip-rule="evenodd" d="M13.6888 23.5426C16.9287 20.3027 22.1816 20.3027 25.4217 23.5426L32.6069 30.7278C31.0572 31.5128 29.3116 31.9672 27.463 31.9984L27.2588 32.0002L5.23145 31.9998L13.6888 23.5426ZM39.1107 20.1483C39.1107 23.8999 37.3676 27.2443 34.6472 29.416L27.0975 21.8667L26.9504 21.7156C23.8585 18.4655 23.9075 13.3239 27.0976 10.1338L28.8316 8.3999C34.6337 9.1692 39.1107 14.1359 39.1107 20.1483Z" fill="#1E87FF"></path>
  </g>
  <defs>
    <clipPath id="clip0_1680_10831">
      <rect width="125.63" height="32" fill="white"></rect>
    </clipPath>
  </defs>
</svg>
